<svg width="50" height="50" viewBox="0 0 50 50" fill="none" xmlns="http://www.w3.org/2000/svg">
<rect width="50" height="50" fill="white"/>
<path d="M18.0356 36C17.801 36 17.6196 35.936 17.4916 35.808C17.3636 35.6587 17.2996 35.4773 17.2996 35.264V14.368C17.2996 14.1333 17.3636 13.952 17.4916 13.824C17.6196 13.6747 17.801 13.6 18.0356 13.6H25.8436C28.2543 13.6 30.1636 14.1653 31.5716 15.296C32.9796 16.4267 33.6836 18.1013 33.6836 20.32C33.6836 21.9627 33.2676 23.3067 32.4356 24.352C31.625 25.376 30.5156 26.0907 29.1076 26.496L34.0356 35.008C34.0996 35.136 34.1316 35.2533 34.1316 35.36C34.1316 35.5307 34.057 35.68 33.9076 35.808C33.7796 35.936 33.6303 36 33.4596 36H31.9236C31.561 36 31.2943 35.904 31.1236 35.712C30.953 35.52 30.8036 35.328 30.6756 35.136L26.0356 27.008H20.4356V35.264C20.4356 35.4773 20.361 35.6587 20.2116 35.808C20.0836 35.936 19.9023 36 19.6676 36H18.0356ZM20.4356 24.288H25.7156C27.3156 24.288 28.5103 23.9573 29.2996 23.296C30.089 22.6133 30.4836 21.6107 30.4836 20.288C30.4836 18.9867 30.089 17.9947 29.2996 17.312C28.5316 16.6293 27.337 16.288 25.7156 16.288H20.4356V24.288Z" fill="black"/>
</svg>
